<svg xmlns="http://www.w3.org/2000/svg" viewBox="0 0 256 256">
  <rect width="256" height="256" fill="none"/>
  <path d="M226.79,74.52l-90.6-51.77a16,16,0,0,0-16.38,0L29.21,74.52a16,16,0,0,0-8.19,13.91V167.6a16,16,0,0,0,8.19,13.91l90.6,51.77a16,16,0,0,0,16.38,0l90.6-51.77a16,16,0,0,0,8.19-13.91V88.43A16,16,0,0,0,226.79,74.52Z" fill="#00f2ff"/>
  <path d="M128,152a24,24,0,1,1,24-24A24,24,0,0,1,128,152Zm48-64H80A16,16,0,0,0,64,104v48a16,16,0,0,0,16,16h96a16,16,0,0,0,16-16V104A16,16,0,0,0,176,88Zm-48,48a16,16,0,1,0-16-16A16,16,0,0,0,128,136Z" fill="#050505"/>
</svg>
